<svg width="205" height="191" viewBox="0 0 205 191" fill="none" xmlns="http://www.w3.org/2000/svg">
<path d="M177.004 140.016L185.139 101.141L188.106 100.426C190.033 99.974 191.478 98.5812 191.872 96.8076C192.264 95.0385 191.537 93.1712 189.983 91.9532L117.358 36.2635C115.909 35.1304 113.955 34.7262 112.16 35.1907L23.7321 57.2282C21.8436 57.726 20.4467 59.1286 20.0888 60.8924C19.7309 62.6561 20.4724 64.4937 22.0278 65.6947L53.7825 89.9423C53.193 90.5508 52.7519 91.2935 52.5713 92.1561L44.0379 132.935C43.8958 133.615 43.9154 134.32 44.0954 135.006C44.2754 135.691 44.6118 136.34 45.0824 136.911C46.053 138.082 55.5054 148.538 89.6031 155.674C123.58 162.784 136.639 157.504 138.016 156.879C139.455 156.227 140.463 155.009 140.767 153.559L149.519 111.734C149.661 111.057 149.637 110.381 149.48 109.739L173.341 103.986L166.265 137.796C162.733 138.802 159.934 141.418 159.191 144.965C158.077 150.288 161.98 155.609 167.908 156.849C173.835 158.09 179.544 154.78 180.658 149.457C181.405 145.889 179.862 142.351 177.004 140.016ZM130.611 148.551C126.011 149.49 114.098 150.739 91.6197 146.035C68.9988 141.302 58.8869 135.202 55.3239 132.54L62.797 96.8285L94.1624 120.781C94.8651 121.324 95.6987 121.706 96.588 121.892C97.4538 122.074 98.3464 122.063 99.1882 121.86L138.163 112.464L130.611 148.551ZM98.7818 111.622L36.6397 64.263L112.754 45.4559L175.176 93.1529L98.7818 111.622Z" fill="#00057D"/>
</svg>
