<svg width="198" height="147" viewBox="0 0 198 147" fill="none" xmlns="http://www.w3.org/2000/svg">
<path d="M90.8263 100.489C90.4553 97.6077 89.888 94.9546 89.1244 92.5302C88.3609 90.1058 87.3263 87.7977 86.0208 85.6059C84.7153 83.4141 82.97 81.7807 80.785 80.7057C78.5999 79.6307 76.1159 79.2724 73.3328 79.6307C69.9828 83.534 65.584 85.8364 60.1362 86.5378C54.6885 87.2391 49.85 86.126 45.6206 83.1985C42.8375 83.5568 40.5252 84.5326 38.6837 86.126C36.8422 87.7193 35.5675 89.7415 34.8598 92.1926C34.152 94.6436 33.7358 97.1385 33.6112 99.6772C33.4865 102.216 33.6097 104.926 33.9807 107.808C34.3586 110.743 35.6125 113.118 37.7422 114.932C39.872 116.747 42.2396 117.486 44.845 117.151L82.6828 112.28C85.2883 111.944 87.3913 110.629 88.9921 108.334C90.5928 106.04 91.2042 103.425 90.8263 100.489ZM74.8814 66.4111C74.3318 62.1418 72.2066 58.7263 68.5058 56.1647C64.8051 53.6031 60.5861 52.6272 55.849 53.2371C51.1119 53.847 47.2777 55.8596 44.3464 59.2751C41.4152 62.6905 40.2244 66.5329 40.7741 70.8022C41.3237 75.0715 43.4489 78.487 47.1496 81.0486C50.8504 83.6102 55.0693 84.586 59.8065 83.9762C64.5436 83.3663 68.3778 81.3536 71.309 77.9382C74.2403 74.5228 75.4311 70.6804 74.8814 66.4111ZM170.781 93.1253L170.122 88.0021C170.025 87.255 169.68 86.6756 169.085 86.2639C168.49 85.8522 167.779 85.6997 166.95 85.8065L104.419 93.8568C103.59 93.9636 102.94 94.2914 102.469 94.8403C101.998 95.3892 101.811 96.0372 101.907 96.7843L102.566 101.908C102.663 102.655 103.008 103.234 103.603 103.646C104.198 104.057 104.91 104.21 105.739 104.103L168.269 96.0528C169.098 95.9461 169.748 95.6183 170.219 95.0694C170.69 94.5205 170.877 93.8724 170.781 93.1253ZM134.036 77.0237L133.376 71.9005C133.28 71.1534 132.934 70.574 132.34 70.1623C131.745 69.7506 131.033 69.5981 130.204 69.7049L101.781 73.3641C100.952 73.4708 100.302 73.7987 99.8309 74.3476C99.3599 74.8965 99.1724 75.5445 99.2686 76.2916L99.9282 81.4148C100.024 82.1619 100.37 82.7413 100.965 83.153C101.559 83.5647 102.271 83.7172 103.1 83.6105L131.523 79.9512C132.352 79.8445 133.002 79.5167 133.473 78.9678C133.944 78.4188 134.132 77.7708 134.036 77.0237ZM168.143 72.6326L167.483 67.5094C167.387 66.7623 167.042 66.1829 166.447 65.7712C165.852 65.3595 165.14 65.207 164.311 65.3137L147.258 67.5093C146.429 67.616 145.779 67.9438 145.307 68.4928C144.836 69.0417 144.649 69.6897 144.745 70.4368L145.405 75.56C145.501 76.3071 145.846 76.8865 146.441 77.2982C147.036 77.7099 147.748 77.8624 148.577 77.7557L165.63 75.5601C166.459 75.4534 167.109 75.1256 167.581 74.5767C168.052 74.0277 168.239 73.3797 168.143 72.6326ZM165.505 52.1399L164.845 47.0167C164.749 46.2696 164.403 45.6902 163.809 45.2785C163.214 44.8668 162.502 44.7143 161.673 44.821L99.1428 52.8714C98.3138 52.9781 97.6637 53.3059 97.1926 53.8548C96.7215 54.4038 96.5341 55.0518 96.6303 55.7989L97.2899 60.9221C97.386 61.6692 97.7315 62.2486 98.3263 62.6603C98.921 63.072 99.6329 63.2245 100.462 63.1177L162.992 55.0674C163.821 54.9607 164.471 54.6328 164.942 54.0839C165.413 53.535 165.601 52.887 165.505 52.1399ZM14.0784 42.9905L173.246 22.4987L172.257 14.8139C172.16 14.0668 171.815 13.4874 171.22 13.0757C170.625 12.664 169.914 12.5115 169.085 12.6182L15.6015 32.3782C14.7725 32.4849 14.1224 32.8128 13.6513 33.3617C13.1802 33.9106 12.9928 34.5586 13.089 35.3057L14.0784 42.9905ZM183.626 13.3502L196.158 110.691C196.611 114.213 195.608 117.407 193.148 120.274C190.688 123.14 187.503 124.825 183.595 125.328L30.1122 145.088C26.204 145.591 22.697 144.768 19.591 142.618C16.485 140.468 14.7053 137.632 14.2518 134.11L1.71987 36.7694C1.26641 33.2473 2.26975 30.0529 4.7299 27.1864C7.19005 24.3198 10.3742 22.635 14.2823 22.1319L167.765 2.37188C171.674 1.86873 175.181 2.69212 178.287 4.84204C181.393 6.99196 183.172 9.82802 183.626 13.3502Z" fill="#650A7C"/>
</svg>
