<svg width="168" height="166" viewBox="0 0 168 166" fill="none" xmlns="http://www.w3.org/2000/svg">
<path d="M167.099 83C167.099 128.432 129.899 165.27 84 165.27C38.1008 165.27 0.900635 128.432 0.900635 83C0.900635 37.5682 38.1008 0.729889 84 0.729889C129.899 0.729889 167.099 37.5682 167.099 83Z" fill="#D9D9D9" stroke="black"/>
<path d="M63.8125 52.1513V53.2194L64.6327 52.5353L84.2106 36.2086L119.594 69.3257V117.828H48.4062V66.0618L51.5075 63.4785L51.6875 63.3286V63.0943V34.7281C51.69 34.5652 51.7246 34.4044 51.7893 34.2548C51.8544 34.1044 51.9488 33.9684 52.0669 33.8546C52.1849 33.7409 52.3244 33.6517 52.4772 33.5923C52.63 33.5329 52.793 33.5043 52.9569 33.5084L52.9569 33.5085H52.9692H62.5636V33.5085L62.5684 33.5085C62.7302 33.507 62.8908 33.5373 63.0409 33.5978L63.2279 33.1341L63.0409 33.5978C63.191 33.6584 63.3278 33.7479 63.4433 33.8612C63.5588 33.9746 63.6509 34.1096 63.7142 34.2585L64.1744 34.0629L63.7143 34.2586C63.7773 34.4068 63.8107 34.5661 63.8125 34.7272V52.1513Z" fill="#845C26" stroke="#694719"/>
<path d="M83.5328 111.268H58.25V76.9543C58.25 74.7695 60.0277 72.9918 62.2125 72.9918H79.5703C81.7551 72.9918 83.5328 74.7695 83.5328 76.9543V111.268Z" fill="#EC0404" stroke="black"/>
<path d="M79.0781 92.0776C79.5132 92.0776 79.9305 91.9047 80.2382 91.597C80.5459 91.2894 80.7188 90.8721 80.7188 90.437C80.7188 90.0018 80.5459 89.5845 80.2382 89.2769C79.9305 88.9692 79.5132 88.7963 79.0781 88.7963C78.643 88.7963 78.2257 88.9692 77.918 89.2769C77.6103 89.5845 77.4375 90.0018 77.4375 90.437C77.4375 90.8721 77.6103 91.2894 77.918 91.597C78.2257 91.9047 78.643 92.0776 79.0781 92.0776Z" fill="#402A32"/>
<path d="M83.8687 114.546H57.75C56.2215 114.546 54.9688 113.294 54.9688 111.765C54.9688 110.237 56.2215 108.984 57.75 108.984H83.8687C85.3973 108.984 86.65 110.237 86.65 111.765C86.65 113.294 85.3973 114.546 83.8687 114.546Z" fill="#D3D3D3" stroke="black"/>
<path d="M129.938 118.328H38.0625V118.032C38.0625 114.554 40.8516 111.765 44.3297 111.765H123.67C127.116 111.765 129.938 114.554 129.938 118.032V118.328Z" fill="#3B911C"/>
<path d="M128.405 72.4871L128.406 72.4881C129.783 73.8364 129.778 76.0047 128.41 77.3152L128.41 77.3151L128.403 77.3226C127.058 78.6675 124.845 78.6728 123.462 77.3189L84.4165 38.8637L84.0656 38.5181L83.7148 38.8637L44.5366 77.4512L44.5339 77.4539C43.189 78.7988 40.9763 78.8041 39.5936 77.4502C38.2188 76.1041 38.2188 73.9327 39.5936 72.5866L39.5945 72.5856L81.5945 31.2419L81.5973 31.2391C82.942 29.8944 85.1543 29.8889 86.537 31.2422C86.5373 31.2424 86.5375 31.2426 86.5377 31.2428L128.405 72.4871Z" fill="#C5934F" stroke="#714C1B"/>
<path d="M104.963 86.9647H92.9719C91.8506 86.9647 91.0625 86.184 91.0625 85.304V74.5508C91.0625 73.6923 91.8546 72.8901 92.9719 72.8901H104.963C106.06 72.8901 106.872 73.6743 106.872 74.5508V85.304C106.872 86.184 106.084 86.9647 104.963 86.9647Z" fill="#D5EAFF" stroke="#714C1B"/>
<path d="M68.5322 125.698L68.5442 128.65C69.1682 128.494 69.8282 128.374 70.5242 128.374C71.4362 128.374 72.4202 128.578 73.4402 129.166V128.698L73.4042 127.942L73.3322 125.782L74.2922 125.746L74.5562 133.75L73.6082 133.774L73.4762 130.222C72.4682 129.538 71.5562 129.286 70.6202 129.286C69.9482 129.286 69.2642 129.418 68.5442 129.61V134.062L67.5962 134.098C67.5842 134.062 67.5722 133.858 67.5842 133.522L67.5722 125.698H68.5322ZM75.8294 129.994C75.7934 129.706 75.6854 128.194 76.6694 127.03C77.3654 126.202 78.4454 125.758 79.8614 125.722C80.7854 125.698 81.5534 125.986 82.1294 126.562C83.1974 127.654 83.1974 129.418 83.1854 129.61C83.1974 129.766 83.1974 130.714 82.7894 131.698C82.3814 132.706 81.4694 133.93 79.4534 134.038C79.3814 134.038 79.3094 134.038 79.2254 134.038C76.9454 134.038 75.8294 132.118 75.8294 129.994ZM77.4014 127.642C76.6094 128.554 76.7894 129.874 76.7894 129.898V129.97C76.7894 129.994 76.7654 131.614 77.6654 132.502C78.0974 132.922 78.6734 133.102 79.4174 133.066C82.2974 132.922 82.2254 129.766 82.2254 129.622V129.598C82.2254 128.122 81.6254 126.682 79.9694 126.682C79.0454 126.682 78.0254 126.898 77.4014 127.642ZM85.5484 125.698L88.7404 132.562L91.0084 125.746L91.9564 125.83L93.2284 133.93L92.2564 134.086L91.2964 127.978L89.2804 134.05L88.3684 134.098L85.4644 127.834L85.0204 134.038L84.0364 133.966L84.6124 125.866L85.5484 125.698ZM94.888 125.698H99.88V126.682H95.836L95.74 129.298H99.82V130.282H95.704L95.608 133.042L100.828 132.67L100.888 133.642L94.588 134.098L94.888 125.698Z" fill="black"/>
<path d="M106.534 80.0923L91.4096 80.0914" stroke="white"/>
<path d="M99.1194 73.2313L99.1194 86.618" stroke="white"/>
</svg>
