<svg width="200" height="176" viewBox="0 0 200 176" fill="none" xmlns="http://www.w3.org/2000/svg">
<path d="M83.294 66.5428C74.1732 66.5428 66.7107 73.2511 66.7107 81.4907C66.7107 85.647 68.5348 89.2928 71.6027 92.0636L99.8773 117.584L128.235 92.0636C131.22 89.3657 133.044 85.5741 133.044 81.4907C133.044 73.2511 125.581 66.5428 116.461 66.5428C111.983 66.5428 107.754 68.2199 104.769 70.9178L99.8773 75.2928L95.0682 70.9907C93.5392 69.5996 91.7108 68.4899 89.6894 67.7262C87.6679 66.9626 85.4939 66.5603 83.294 66.5428ZM166.211 30.0845C175.331 30.0845 182.794 36.647 182.794 44.6678V132.168C182.794 140.189 175.331 146.751 166.211 146.751H33.544C24.4232 146.751 16.9607 140.189 16.9607 132.168V44.6678C16.9607 36.647 24.4232 30.0845 33.544 30.0845H166.211ZM138.848 59.6886L166.211 44.6678H33.544L60.9065 59.6886C57.5069 62.5324 54.6877 65.9595 52.8636 69.8241L33.544 59.2511V132.168H166.211V59.2511L146.891 69.8241C145.067 65.9595 142.248 62.5324 138.848 59.6886Z" fill="#FF0000"/>
</svg>
