<svg width="175" height="154" viewBox="0 0 175 154" fill="none" xmlns="http://www.w3.org/2000/svg">
<path d="M98.3152 13.7648C139.177 20.597 170.119 54.5917 164.708 86.9521C159.389 118.766 120.376 137.979 78.7109 131.013C69.7989 129.526 61.1391 126.874 53.0548 123.154C49.0272 125.422 47.6483 126.191 39.104 130.971C33.1034 133.471 27.8003 133.774 23.593 130.861C19.3496 127.93 18.6689 123.489 20.5367 118.103L26.0615 103.871C14.5119 91.2611 9.23532 76.2624 11.7249 61.3728C17.1357 29.0124 57.4457 6.9313 98.3152 13.7648ZM96.8269 22.6655C61.7479 16.8002 27.0047 35.8255 22.4337 63.1633C20.2599 76.1647 25.2342 89.3026 36.0437 100.273L36.1786 100.406L38.1762 102.426L37.2491 104.82L35.3388 109.755L34.8283 111.068L30.8858 121.245C30.6386 121.933 30.4423 122.636 30.2981 123.349L30.1971 123.953C30.1918 123.985 30.182 123.996 30.1733 124.001C30.2375 123.947 31.3235 123.847 33.2865 123.064L52.1239 112.451L55.1248 113.972C62.9243 117.898 71.4168 120.658 80.1981 122.118C116.272 128.15 149.553 111.756 153.999 85.1615C158.569 57.83 131.906 28.5308 96.8269 22.6655ZM53.5004 57.3326C55.0492 57.5435 56.5503 58.0122 57.914 58.7109C59.2777 59.4096 60.476 60.3238 61.4374 61.399C62.3987 62.4742 63.1034 63.6882 63.5092 64.9687C63.9151 66.2491 64.0138 67.5695 63.7995 68.8512C63.5852 70.1329 63.0623 71.3494 62.262 72.4281C61.4617 73.5068 60.4004 74.4256 59.1416 75.1296C57.8827 75.8336 56.4522 76.3082 54.9354 76.5253C53.4185 76.7423 51.8466 76.6973 50.3134 76.3928C47.36 75.8063 44.7237 74.2928 42.9591 72.1707C41.1946 70.0486 40.4392 67.4832 40.8521 65.0143C41.2649 62.5454 42.8136 60.3653 45.1726 58.9326C47.5315 57.4999 50.5168 56.9264 53.5004 57.3326ZM91.7308 63.7249C93.2797 63.9357 94.7807 64.4045 96.1445 65.1032C97.5082 65.8019 98.7065 66.7161 99.6678 67.7913C100.629 68.8665 101.334 70.0805 101.74 71.3609C102.146 72.6413 102.244 73.9618 102.03 75.2435C101.816 76.5251 101.293 77.7416 100.492 78.8204C99.6921 79.8991 98.6309 80.8179 97.372 81.5219C96.1132 82.2258 94.6826 82.7005 93.1658 82.9175C91.649 83.1346 90.0771 83.0895 88.5439 82.7851C85.5905 82.1986 82.9542 80.6851 81.1896 78.563C79.425 76.4409 78.6697 73.8755 79.0825 71.4066C79.4953 68.9376 81.0441 66.7575 83.4031 65.3249C85.762 63.8922 88.7473 63.3187 91.7308 63.7249ZM129.954 70.1158C131.502 70.3267 133.004 70.7955 134.367 71.4942C135.731 72.1928 136.929 73.1071 137.891 74.1823C138.852 75.2574 139.557 76.4715 139.963 77.7519C140.368 79.0323 140.467 80.3528 140.253 81.6344C140.039 82.9161 139.516 84.1326 138.715 85.2114C137.915 86.2901 136.854 87.2089 135.595 87.9128C134.336 88.6168 132.905 89.0915 131.389 89.3085C129.872 89.5256 128.3 89.4805 126.767 89.1761C123.813 88.5896 121.177 87.0761 119.412 84.954C117.648 82.8319 116.893 80.2665 117.305 77.7976C117.718 75.3286 119.267 73.1485 121.626 71.7158C123.985 70.2832 126.97 69.7096 129.954 70.1158Z" fill="#1ED50E"/>
</svg>
